<svg xmlns="http://www.w3.org/2000/svg" width="32" height="32" viewBox="0 0 32 32" fill="none">
    <g clip-path="url(#clip0_7_587)">
        <path
            d="M8 0C6.93913 0 5.92172 0.421427 5.17157 1.17157C4.42143 1.92172 4 2.93913 4 4V28C4 29.0609 4.42143 30.0783 5.17157 30.8284C5.92172 31.5786 6.93913 32 8 32H24C25.0609 32 26.0783 31.5786 26.8284 30.8284C27.5786 30.0783 28 29.0609 28 28V4C28 2.93913 27.5786 1.92172 26.8284 1.17157C26.0783 0.421427 25.0609 0 24 0L8 0ZM8 2H24C24.5304 2 25.0391 2.21071 25.4142 2.58579C25.7893 2.96086 26 3.46957 26 4V28C26 28.5304 25.7893 29.0391 25.4142 29.4142C25.0391 29.7893 24.5304 30 24 30H8C7.46957 30 6.96086 29.7893 6.58579 29.4142C6.21071 29.0391 6 28.5304 6 28V4C6 3.46957 6.21071 2.96086 6.58579 2.58579C6.96086 2.21071 7.46957 2 8 2Z"
            fill="#00469C" />
        <path
            d="M9.206 24.174C8.81619 24.0181 8.50213 23.7169 8.33 23.334C7.94 22.558 8.07 21.782 8.49 21.13C8.886 20.516 9.54201 19.994 10.284 19.556C11.2239 19.0229 12.2174 18.5905 13.248 18.266C14.0484 16.8272 14.7578 15.3396 15.372 13.812C15.0048 12.9775 14.7168 12.1104 14.512 11.222C14.34 10.422 14.274 9.63 14.42 8.95C14.57 8.242 14.968 7.606 15.72 7.304C16.104 7.15 16.52 7.064 16.924 7.15C17.1272 7.19326 17.3183 7.28121 17.4833 7.40748C17.6483 7.53374 17.7831 7.69515 17.878 7.88C18.054 8.208 18.118 8.592 18.132 8.956C18.146 9.33 18.108 9.746 18.038 10.184C17.87 11.204 17.498 12.452 16.998 13.772C17.5498 14.952 18.2057 16.0805 18.958 17.144C19.8482 17.0737 20.7436 17.1072 21.626 17.244C22.354 17.374 23.094 17.634 23.546 18.174C23.786 18.462 23.932 18.814 23.946 19.21C23.96 19.594 23.852 19.974 23.67 20.336C23.5124 20.6715 23.2679 20.9587 22.962 21.168C22.6596 21.3652 22.3026 21.4619 21.942 21.444C21.28 21.416 20.634 21.052 20.076 20.61C19.3975 20.0489 18.7861 19.4114 18.254 18.71C16.9015 18.8634 15.565 19.1351 14.26 19.522C13.6617 20.582 12.9788 21.5919 12.218 22.542C11.638 23.242 11.002 23.852 10.366 24.116C10.0006 24.2813 9.5861 24.302 9.206 24.174ZM11.964 20.372C11.632 20.524 11.324 20.684 11.046 20.848C10.39 21.236 9.964 21.614 9.752 21.942C9.564 22.232 9.56 22.442 9.672 22.664C9.692 22.708 9.712 22.736 9.724 22.752C9.74786 22.7456 9.77125 22.7376 9.794 22.728C10.068 22.616 10.504 22.258 11.064 21.584C11.3825 21.1941 11.6828 20.7896 11.964 20.372ZM15.244 17.712C15.9118 17.556 16.5857 17.4272 17.264 17.326C16.8997 16.7688 16.5594 16.1963 16.244 15.61C15.9304 16.3192 15.5969 17.0195 15.244 17.71V17.712ZM20.136 18.612C20.436 18.936 20.728 19.212 21.006 19.432C21.486 19.812 21.82 19.938 22.002 19.944C22.0507 19.9504 22.1002 19.9398 22.142 19.914C22.2252 19.8483 22.29 19.7622 22.33 19.664C22.4011 19.5422 22.4416 19.4049 22.448 19.264C22.4469 19.217 22.4283 19.1721 22.396 19.138C22.292 19.014 21.996 18.834 21.36 18.72C20.9554 18.6524 20.5462 18.6169 20.136 18.614V18.612ZM16.156 11.6C16.3243 11.057 16.4579 10.5039 16.556 9.944C16.618 9.568 16.642 9.258 16.632 9.014C16.6326 8.87938 16.6109 8.74559 16.568 8.618C16.468 8.63039 16.3703 8.65734 16.278 8.698C16.104 8.768 15.962 8.91 15.886 9.264C15.806 9.648 15.826 10.202 15.978 10.908C16.026 11.13 16.086 11.362 16.158 11.6H16.156Z"
            fill="#00469C" />
    </g>
    <defs>
        <clipPath id="clip0_7_587">
            <rect width="32" height="32" fill="white" />
        </clipPath>
    </defs>
</svg>